<svg xmlns="http://www.w3.org/2000/svg" viewBox="0 0 700 700">
<path xmlns="http://www.w3.org/2000/svg" id="search" d="m310.78 56c-101.65 0-184.78 83.129-184.78 184.79s83.129 184.78 184.78 184.78c38.742 0 74.68-12.148 104.46-32.723l101.32 101.32c13.121 13.117 34.477 13.121 47.594 0 13.121-13.121 13.121-34.301 0-47.422l-101.31-101.32c20.582-29.789 32.723-65.887 32.723-104.64 0-101.66-83.129-184.79-184.79-184.79zm0 67.195c65.34 0 117.59 52.25 117.59 117.59s-52.25 117.59-117.59 117.59-117.59-52.25-117.59-117.59 52.25-117.59 117.59-117.59z"/>
</svg>